<svg width="199" height="200" viewBox="0 0 199 200" fill="none" xmlns="http://www.w3.org/2000/svg">
<g filter="url(#filter0_d_94_3)">
<ellipse cx="99.5" cy="96" rx="95.5" ry="96" fill="#0077FF"/>
<mask id="mask0_94_3" style="mask-type:alpha" maskUnits="userSpaceOnUse" x="8" y="0" width="183" height="182">
<ellipse cx="99.0705" cy="90.691" rx="91.0705" ry="90.691" fill="#D9D9D9"/>
</mask>
<g mask="url(#mask0_94_3)">
<path d="M105.446 86.7286C106.913 83.7544 111.154 83.7544 112.621 86.7286L164.671 192.266C165.983 194.924 164.048 198.035 161.084 198.035H56.9824C54.0184 198.035 52.0839 194.924 53.3949 192.266L105.446 86.7286Z" fill="#CBEFC2"/>
<path d="M143.779 64.3707C146.425 59.4734 153.451 59.4734 156.097 64.3707L218.064 179.081C220.584 183.745 217.206 189.408 211.906 189.408H87.97C82.6691 189.408 79.2917 183.745 81.8112 179.081L143.779 64.3707Z" fill="white"/>
<path d="M37.2449 62.2489C39.8741 57.2822 46.989 57.2822 49.6182 62.2488L106.502 169.702C108.97 174.364 105.59 179.977 100.315 179.977H-13.4519C-18.7269 179.977 -22.1065 174.364 -19.6385 169.702L37.2449 62.2489Z" fill="white"/>
</g>
</g>
<defs>
<filter id="filter0_d_94_3" x="0" y="0" width="199" height="200" filterUnits="userSpaceOnUse" color-interpolation-filters="sRGB">
<feFlood flood-opacity="0" result="BackgroundImageFix"/>
<feColorMatrix in="SourceAlpha" type="matrix" values="0 0 0 0 0 0 0 0 0 0 0 0 0 0 0 0 0 0 127 0" result="hardAlpha"/>
<feOffset dy="4"/>
<feGaussianBlur stdDeviation="2"/>
<feComposite in2="hardAlpha" operator="out"/>
<feColorMatrix type="matrix" values="0 0 0 0 0 0 0 0 0 0 0 0 0 0 0 0 0 0 0.25 0"/>
<feBlend mode="normal" in2="BackgroundImageFix" result="effect1_dropShadow_94_3"/>
<feBlend mode="normal" in="SourceGraphic" in2="effect1_dropShadow_94_3" result="shape"/>
</filter>
</defs>
</svg>
