<svg width="390" height="844" viewBox="0 0 390 844" fill="none" xmlns="http://www.w3.org/2000/svg">
<g clip-path="url(#clip0_94_2)">
<rect width="390" height="844" fill="white"/>
<g opacity="0.7" filter="url(#filter0_i_94_2)">
<path d="M-168 97.8329L-186 88.8329V146.833C-186 165.158 -139.545 163.348 -113.813 162.345L-113.5 162.333C-98.5 157.999 -63.2 140.833 -48 124.833C-32.8 108.833 -17.5 121.333 -14.5 119.333C-19.1667 132.666 -69.1 194.733 -91.5 248.333C-113.9 301.933 -64.5 315.833 -50.5 326.833C-32.1667 332.499 17.8 324.233 49 293.833C80.2 263.433 102 269.166 109 275.833C106.333 295.833 145.6 302.3 156 333.5C166.4 364.7 170.5 390.5 226 406.833C226 406.833 260.5 418 307 406.833C353.5 395.666 372 386 391 390.5C410 395 455.5 308.5 391 307.5C326.5 306.5 327 380 216 353.833C198.994 349.824 185.667 331.833 181 323.833C174 308.166 167 264.433 195 214.833C223 165.233 195 152 172.5 150C156.5 150.5 125.4 152.033 95 192.833C64.6 233.633 29.6667 229.166 16 221.833C6 216.833 -5.8 188.433 27 114.833C59.8 41.2329 3 36.9995 -30 49.3328C-61.5 67.3327 -49.8 75.8329 -81 107.833C-112.2 139.833 -152 114.5 -168 97.8329Z" fill="#A2BAFA"/>
<path d="M-168 97.8329L-186 88.8329V146.833C-186 165.158 -139.545 163.348 -113.813 162.345L-113.5 162.333C-98.5 157.999 -63.2 140.833 -48 124.833C-32.8 108.833 -17.5 121.333 -14.5 119.333C-19.1667 132.666 -69.1 194.733 -91.5 248.333C-113.9 301.933 -64.5 315.833 -50.5 326.833C-32.1667 332.499 17.8 324.233 49 293.833C80.2 263.433 102 269.166 109 275.833C106.333 295.833 145.6 302.3 156 333.5C166.4 364.7 170.5 390.5 226 406.833C226 406.833 260.5 418 307 406.833C353.5 395.666 372 386 391 390.5C410 395 455.5 308.5 391 307.5C326.5 306.5 327 380 216 353.833C198.994 349.824 185.667 331.833 181 323.833C174 308.166 167 264.433 195 214.833C223 165.233 195 152 172.5 150C156.5 150.5 125.4 152.033 95 192.833C64.6 233.633 29.6667 229.166 16 221.833C6 216.833 -5.8 188.433 27 114.833C59.8 41.2329 3 36.9995 -30 49.3328C-61.5 67.3327 -49.8 75.8329 -81 107.833C-112.2 139.833 -152 114.5 -168 97.8329Z" fill="url(#paint0_linear_94_2)" fill-opacity="0.2"/>
</g>
<g opacity="0.7">
<g filter="url(#filter1_i_94_2)">
<path d="M-336 525.833L-318 534.833C-302 551.5 -262.2 576.833 -231 544.833C-199.8 512.833 -211.5 504.333 -180 486.333C-147 473.999 -90.2 478.233 -123 551.833C-155.8 625.433 -144 653.833 -134 658.833L-133.911 658.881C-120.23 666.222 -96.3342 679.044 -66 638.333C-35.6 597.533 -11.8333 581 0.5 585C20.5 584.667 73 602.233 45 651.833C17 701.433 24 745.166 31 760.833C35.6667 768.833 49.2 786.033 66 790.833C74.3268 793.212 95.1232 801.584 116 801C157 801 149 785 213 790.833C281.5 801 301.5 850 301.5 850C280.36 873.169 283.843 858.159 289.077 849.82C292.013 845.141 295.5 842.561 295.5 850L289.077 849.82L76 843.833C43 846.166 -14.1 816.2 -24.5 785C-34.9 753.8 -43.6667 732.833 -41 712.833C-48 706.166 -69.8 700.433 -101 730.833C-132.2 761.233 -182.167 769.499 -200.5 763.833C-214.5 752.833 -263.9 738.933 -241.5 685.333C-219.1 631.733 -169.167 569.666 -164.5 556.333C-167.5 558.333 -182.8 545.833 -198 561.833C-213.2 577.833 -248.5 594.999 -263.5 599.333L-263.813 599.345C-289.545 600.348 -336 602.158 -336 583.833V525.833Z" fill="#A9A2FA" fill-opacity="0.77"/>
<path d="M-336 525.833L-318 534.833C-302 551.5 -262.2 576.833 -231 544.833C-199.8 512.833 -211.5 504.333 -180 486.333C-147 473.999 -90.2 478.233 -123 551.833C-155.8 625.433 -144 653.833 -134 658.833L-133.911 658.881C-120.23 666.222 -96.3342 679.044 -66 638.333C-35.6 597.533 -11.8333 581 0.5 585C20.5 584.667 73 602.233 45 651.833C17 701.433 24 745.166 31 760.833C35.6667 768.833 49.2 786.033 66 790.833C74.3268 793.212 95.1232 801.584 116 801C157 801 149 785 213 790.833C281.5 801 301.5 850 301.5 850C280.36 873.169 283.843 858.159 289.077 849.82C292.013 845.141 295.5 842.561 295.5 850L289.077 849.82L76 843.833C43 846.166 -14.1 816.2 -24.5 785C-34.9 753.8 -43.6667 732.833 -41 712.833C-48 706.166 -69.8 700.433 -101 730.833C-132.2 761.233 -182.167 769.499 -200.5 763.833C-214.5 752.833 -263.9 738.933 -241.5 685.333C-219.1 631.733 -169.167 569.666 -164.5 556.333C-167.5 558.333 -182.8 545.833 -198 561.833C-213.2 577.833 -248.5 594.999 -263.5 599.333L-263.813 599.345C-289.545 600.348 -336 602.158 -336 583.833V525.833Z" fill="url(#paint1_linear_94_2)" fill-opacity="0.2"/>
</g>
<g filter="url(#filter2_i_94_2)">
<path d="M37 -156.167L19 -165.167V-107.167C19 -88.8417 65.4548 -90.6522 91.1871 -91.655L91.5 -91.6672C106.5 -96.0006 141.8 -113.167 157 -129.167C172.2 -145.167 187.5 -132.667 190.5 -134.667C185.833 -121.334 135.9 -59.2672 113.5 -5.66724C91.1 47.9328 135 69.8328 144 72.5C190 81 222.8 70.2328 254 39.8328C285.2 9.43285 307 15.1662 314 21.8328C311.333 41.8328 312.064 66.7654 330.5 94C352.5 126.5 398 155.166 431 152.833H463V99.8328C463 99.8328 437.8 104.633 421 99.8328C404.2 95.0328 390.667 77.8328 386 69.8328C379 54.1661 372 10.4328 400 -39.1672C428 -88.7672 375.5 -106.333 355.5 -106C343.167 -110 319.4 -93.4672 289 -52.6672C258.666 -11.9555 234.77 -24.7779 221.089 -32.1194L221 -32.1672C211 -37.1671 199.2 -65.5671 232 -139.167C264.8 -212.767 208 -217.001 175 -204.667C143.5 -186.667 155.2 -178.167 124 -146.167C92.8 -114.167 53 -139.5 37 -156.167Z" fill="#A2A5FA" fill-opacity="0.65"/>
<path d="M37 -156.167L19 -165.167V-107.167C19 -88.8417 65.4548 -90.6522 91.1871 -91.655L91.5 -91.6672C106.5 -96.0006 141.8 -113.167 157 -129.167C172.2 -145.167 187.5 -132.667 190.5 -134.667C185.833 -121.334 135.9 -59.2672 113.5 -5.66724C91.1 47.9328 135 69.8328 144 72.5C190 81 222.8 70.2328 254 39.8328C285.2 9.43285 307 15.1662 314 21.8328C311.333 41.8328 312.064 66.7654 330.5 94C352.5 126.5 398 155.166 431 152.833H463V99.8328C463 99.8328 437.8 104.633 421 99.8328C404.2 95.0328 390.667 77.8328 386 69.8328C379 54.1661 372 10.4328 400 -39.1672C428 -88.7672 375.5 -106.333 355.5 -106C343.167 -110 319.4 -93.4672 289 -52.6672C258.666 -11.9555 234.77 -24.7779 221.089 -32.1194L221 -32.1672C211 -37.1671 199.2 -65.5671 232 -139.167C264.8 -212.767 208 -217.001 175 -204.667C143.5 -186.667 155.2 -178.167 124 -146.167C92.8 -114.167 53 -139.5 37 -156.167Z" fill="url(#paint2_linear_94_2)" fill-opacity="0.2"/>
</g>
</g>
<path d="M158.877 815L155.157 806.6H156.117L159.597 814.508H159.069L162.573 806.6H163.473L159.753 815H158.877ZM165.46 812.912L165.424 811.832L170.512 806.6H171.532L167.824 810.488L167.32 811.028L165.46 812.912ZM164.692 815V806.6H165.58V815H164.692ZM170.728 815L167.104 810.824L167.704 810.176L171.784 815H170.728ZM176.364 815V806.6H177.096L180.936 813.152H180.552L184.356 806.6H185.088V815H184.236V807.932H184.44L180.936 813.932H180.516L176.988 807.932H177.216V815H176.364ZM187.645 815V808.7H188.497V815H187.645ZM188.077 807.308C187.901 807.308 187.753 807.248 187.633 807.128C187.513 807.008 187.453 806.864 187.453 806.696C187.453 806.528 187.513 806.388 187.633 806.276C187.753 806.156 187.901 806.096 188.077 806.096C188.253 806.096 188.401 806.152 188.521 806.264C188.641 806.376 188.701 806.516 188.701 806.684C188.701 806.86 188.641 807.008 188.521 807.128C188.409 807.248 188.261 807.308 188.077 807.308ZM194.084 808.64C194.596 808.64 195.044 808.74 195.428 808.94C195.82 809.132 196.124 809.428 196.34 809.828C196.564 810.228 196.676 810.732 196.676 811.34V815H195.824V811.424C195.824 810.76 195.656 810.26 195.32 809.924C194.992 809.58 194.528 809.408 193.928 809.408C193.48 809.408 193.088 809.5 192.752 809.684C192.424 809.86 192.168 810.12 191.984 810.464C191.808 810.8 191.72 811.208 191.72 811.688V815H190.868V808.7H191.684V810.428L191.552 810.104C191.752 809.648 192.072 809.292 192.512 809.036C192.952 808.772 193.476 808.64 194.084 808.64ZM198.977 815V808.7H199.829V815H198.977ZM199.409 807.308C199.233 807.308 199.085 807.248 198.965 807.128C198.845 807.008 198.785 806.864 198.785 806.696C198.785 806.528 198.845 806.388 198.965 806.276C199.085 806.156 199.233 806.096 199.409 806.096C199.585 806.096 199.733 806.152 199.853 806.264C199.973 806.376 200.033 806.516 200.033 806.684C200.033 806.86 199.973 807.008 199.853 807.128C199.741 807.248 199.593 807.308 199.409 807.308ZM204.176 815L208.016 806.6H208.892L212.732 815H211.796L208.268 807.116H208.628L205.1 815H204.176ZM205.688 812.756L205.952 812.036H210.836L211.1 812.756H205.688ZM217.194 815.06C216.65 815.06 216.158 814.936 215.718 814.688C215.278 814.432 214.926 814.068 214.662 813.596C214.406 813.116 214.278 812.532 214.278 811.844C214.278 811.156 214.406 810.576 214.662 810.104C214.918 809.624 215.266 809.26 215.706 809.012C216.146 808.764 216.642 808.64 217.194 808.64C217.794 808.64 218.33 808.776 218.802 809.048C219.282 809.312 219.658 809.688 219.93 810.176C220.202 810.656 220.338 811.212 220.338 811.844C220.338 812.484 220.202 813.044 219.93 813.524C219.658 814.004 219.282 814.38 218.802 814.652C218.33 814.924 217.794 815.06 217.194 815.06ZM213.942 817.328V808.7H214.758V810.596L214.674 811.856L214.794 813.128V817.328H213.942ZM217.134 814.304C217.582 814.304 217.982 814.204 218.334 814.004C218.686 813.796 218.966 813.508 219.174 813.14C219.382 812.764 219.486 812.332 219.486 811.844C219.486 811.356 219.382 810.928 219.174 810.56C218.966 810.192 218.686 809.904 218.334 809.696C217.982 809.488 217.582 809.384 217.134 809.384C216.686 809.384 216.282 809.488 215.922 809.696C215.57 809.904 215.29 810.192 215.082 810.56C214.882 810.928 214.782 811.356 214.782 811.844C214.782 812.332 214.882 812.764 215.082 813.14C215.29 813.508 215.57 813.796 215.922 814.004C216.282 814.204 216.686 814.304 217.134 814.304ZM225.327 815.06C224.783 815.06 224.291 814.936 223.851 814.688C223.411 814.432 223.059 814.068 222.795 813.596C222.539 813.116 222.411 812.532 222.411 811.844C222.411 811.156 222.539 810.576 222.795 810.104C223.051 809.624 223.399 809.26 223.839 809.012C224.279 808.764 224.775 808.64 225.327 808.64C225.927 808.64 226.463 808.776 226.935 809.048C227.415 809.312 227.791 809.688 228.063 810.176C228.335 810.656 228.471 811.212 228.471 811.844C228.471 812.484 228.335 813.044 228.063 813.524C227.791 814.004 227.415 814.38 226.935 814.652C226.463 814.924 225.927 815.06 225.327 815.06ZM222.075 817.328V808.7H222.891V810.596L222.807 811.856L222.927 813.128V817.328H222.075ZM225.267 814.304C225.715 814.304 226.115 814.204 226.467 814.004C226.819 813.796 227.099 813.508 227.307 813.14C227.515 812.764 227.619 812.332 227.619 811.844C227.619 811.356 227.515 810.928 227.307 810.56C227.099 810.192 226.819 809.904 226.467 809.696C226.115 809.488 225.715 809.384 225.267 809.384C224.819 809.384 224.415 809.488 224.055 809.696C223.703 809.904 223.423 810.192 223.215 810.56C223.015 810.928 222.915 811.356 222.915 811.844C222.915 812.332 223.015 812.764 223.215 813.14C223.423 813.508 223.703 813.796 224.055 814.004C224.415 814.204 224.819 814.304 225.267 814.304ZM231.9 815.06C231.38 815.06 230.888 814.988 230.424 814.844C229.96 814.692 229.596 814.504 229.332 814.28L229.716 813.608C229.972 813.8 230.3 813.968 230.7 814.112C231.1 814.248 231.52 814.316 231.96 814.316C232.56 814.316 232.992 814.224 233.256 814.04C233.52 813.848 233.652 813.596 233.652 813.284C233.652 813.052 233.576 812.872 233.424 812.744C233.28 812.608 233.088 812.508 232.848 812.444C232.608 812.372 232.34 812.312 232.044 812.264C231.748 812.216 231.452 812.16 231.156 812.096C230.868 812.032 230.604 811.94 230.364 811.82C230.124 811.692 229.928 811.52 229.776 811.304C229.632 811.088 229.56 810.8 229.56 810.44C229.56 810.096 229.656 809.788 229.848 809.516C230.04 809.244 230.32 809.032 230.688 808.88C231.064 808.72 231.52 808.64 232.056 808.64C232.464 808.64 232.872 808.696 233.28 808.808C233.688 808.912 234.024 809.052 234.288 809.228L233.916 809.912C233.636 809.72 233.336 809.584 233.016 809.504C232.696 809.416 232.376 809.372 232.056 809.372C231.488 809.372 231.068 809.472 230.796 809.672C230.532 809.864 230.4 810.112 230.4 810.416C230.4 810.656 230.472 810.844 230.616 810.98C230.768 811.116 230.964 811.224 231.204 811.304C231.452 811.376 231.72 811.436 232.008 811.484C232.304 811.532 232.596 811.592 232.884 811.664C233.18 811.728 233.448 811.82 233.688 811.94C233.936 812.052 234.132 812.216 234.276 812.432C234.428 812.64 234.504 812.916 234.504 813.26C234.504 813.628 234.4 813.948 234.192 814.22C233.992 814.484 233.696 814.692 233.304 814.844C232.92 814.988 232.452 815.06 231.9 815.06Z" fill="white"/>
</g>
<defs>
<filter id="filter0_i_94_2" x="-186" y="44" width="610.373" height="377.796" filterUnits="userSpaceOnUse" color-interpolation-filters="sRGB">
<feFlood flood-opacity="0" result="BackgroundImageFix"/>
<feBlend mode="normal" in="SourceGraphic" in2="BackgroundImageFix" result="shape"/>
<feColorMatrix in="SourceAlpha" type="matrix" values="0 0 0 0 0 0 0 0 0 0 0 0 0 0 0 0 0 0 127 0" result="hardAlpha"/>
<feOffset dy="10"/>
<feGaussianBlur stdDeviation="10"/>
<feComposite in2="hardAlpha" operator="arithmetic" k2="-1" k3="1"/>
<feColorMatrix type="matrix" values="0 0 0 0 0 0 0 0 0 0 0 0 0 0 0 0 0 0 0.25 0"/>
<feBlend mode="normal" in2="shape" result="effect1_innerShadow_94_2"/>
</filter>
<filter id="filter1_i_94_2" x="-336" y="481" width="637.5" height="391.349" filterUnits="userSpaceOnUse" color-interpolation-filters="sRGB">
<feFlood flood-opacity="0" result="BackgroundImageFix"/>
<feBlend mode="normal" in="SourceGraphic" in2="BackgroundImageFix" result="shape"/>
<feColorMatrix in="SourceAlpha" type="matrix" values="0 0 0 0 0 0 0 0 0 0 0 0 0 0 0 0 0 0 127 0" result="hardAlpha"/>
<feOffset dy="10"/>
<feGaussianBlur stdDeviation="10"/>
<feComposite in2="hardAlpha" operator="arithmetic" k2="-1" k3="1"/>
<feColorMatrix type="matrix" values="0 0 0 0 0 0 0 0 0 0 0 0 0 0 0 0 0 0 0.25 0"/>
<feBlend mode="normal" in2="shape" result="effect1_innerShadow_94_2"/>
</filter>
<filter id="filter2_i_94_2" x="19" y="-210" width="444" height="372.966" filterUnits="userSpaceOnUse" color-interpolation-filters="sRGB">
<feFlood flood-opacity="0" result="BackgroundImageFix"/>
<feBlend mode="normal" in="SourceGraphic" in2="BackgroundImageFix" result="shape"/>
<feColorMatrix in="SourceAlpha" type="matrix" values="0 0 0 0 0 0 0 0 0 0 0 0 0 0 0 0 0 0 127 0" result="hardAlpha"/>
<feOffset dy="10"/>
<feGaussianBlur stdDeviation="10"/>
<feComposite in2="hardAlpha" operator="arithmetic" k2="-1" k3="1"/>
<feColorMatrix type="matrix" values="0 0 0 0 0 0 0 0 0 0 0 0 0 0 0 0 0 0 0.25 0"/>
<feBlend mode="normal" in2="shape" result="effect1_innerShadow_94_2"/>
</filter>
<linearGradient id="paint0_linear_94_2" x1="145.729" y1="465.661" x2="-69.9328" y2="198.877" gradientUnits="userSpaceOnUse">
<stop offset="0.161458" stop-color="#BA67CE"/>
<stop offset="0.338542" stop-color="#2588F9"/>
<stop offset="0.479167" stop-color="#DDA7FF"/>
<stop offset="0.901042" stop-color="#FBFCFD"/>
</linearGradient>
<linearGradient id="paint1_linear_94_2" x1="-4.27155" y1="902.661" x2="-219.933" y2="635.877" gradientUnits="userSpaceOnUse">
<stop offset="0.161458" stop-color="#DBE7F5"/>
<stop offset="0.432292" stop-color="#7630AC"/>
<stop offset="0.619792" stop-color="#7658B7"/>
<stop offset="0.901042" stop-color="#FBFCFD"/>
</linearGradient>
<linearGradient id="paint2_linear_94_2" x1="350.728" y1="211.661" x2="135.067" y2="-55.1231" gradientUnits="userSpaceOnUse">
<stop offset="0.161458" stop-color="#DBE7F5"/>
<stop offset="0.338542" stop-color="#9A4ACB"/>
<stop offset="0.479167" stop-color="#C4B5EE"/>
<stop offset="0.796875" stop-color="#FBFCFD"/>
<stop offset="0.885417" stop-color="#8F45C9"/>
</linearGradient>
<clipPath id="clip0_94_2">
<rect width="390" height="844" fill="white"/>
</clipPath>
</defs>
</svg>
